<svg height="246" viewBox="0 0 800 246" width="800" fill="#fff" xmlns="http://www.w3.org/2000/svg"><path d="m352.557 348.576h29.126v-28.943h29.124v28.943h43.693v-28.939h-29.125v-28.829h29.125a58.089 58.089 0 0 0 -58.25-57.995h-58.25v58.168h14.561zm14.563-86.822h29.126a29.056 29.056 0 0 1 29.123 28.946h-14.559-29.127-14.563z" transform="translate(112.497 -102.576)"/><path d="m305.172 319.637h58.249v28.939h29.126v-57.876h-.006a58.063 58.063 0 0 0 -46.074-56.612 58.891 58.891 0 0 0 -12.167-1.273h-46.083v57.885h-12.173v57.879h29.128zm12.171-57.882h17.012a29.089 29.089 0 0 1 29.06 28.943h-46.072z" transform="translate(57.944 -102.576)"/><path d="m414.509 290.811v57.765h29.126v-28.939h14.565a29.033 29.033 0 0 1 29.124 28.939h29.124a57.971 57.971 0 0 0 -43.687-56.057v-1.768h14.565v-29h29.124v-28.938h-58.25v57.881h-29.126v-57.879h-29.128v58z" transform="translate(167.048 -102.576)"/><path d="m458.2 278.877v-28.939h14.56v28.939h29.128v-57.88h-58.255v25.06a29 29 0 1 1 43.69-25.057h29.124a58.252 58.252 0 1 0 -58.249 57.88z" transform="translate(167.048 -163.116)"/><path d="m520.151 278.877a58.068 58.068 0 0 0 58.249-57.877h-29.126a29.033 29.033 0 0 1 -29.124 28.941h-29.125v-14.132h29.124v-28.943h-29.124v-14.809h58.249v-28.941h-87.374v57.884 57.88z" transform="translate(221.6 -163.116)"/><path d="m367.121 221v-28.94h14.561v28.939h29.125v28.94h14.564v28.941h29.129v-57.88h-14.564v-28.941h14.564v-28.94h-29.127v28.937h-29.127v-28.94h-58.246v115.76h29.125z" transform="translate(112.497 -163.116)"/><path d="m245.068 251.971h58.252v-28.94h-29.125v-28.94h-29.127z" transform="translate(30.668 -136.21)"/><path d="m305.172 249.938h43.686v28.939h29.128l.06-57.88h14.5a58.253 58.253 0 0 0 -116.5 0v57.88h29.128zm29.128-57.881a29.035 29.035 0 0 1 29.123 28.943h-58.253a29.033 29.033 0 0 1 29.13-28.943z" transform="translate(57.856 -163.116)"/><path d="m187.672 309.854a57.883 57.883 0 1 0 -58.254-57.882 58.069 58.069 0 0 0 58.254 57.882zm0-88.806a31.6 31.6 0 1 1 -31.808 31.6 31.706 31.706 0 0 1 31.808-31.6z" transform="translate(-71.169 -136.211)"/><path d="m214.947 394.64c59.258 0 108.183-43.963 115.544-100.853v115.329h29.128v-86.822h29.122v14.469h14.559a29.034 29.034 0 0 1 -29.12 28.937v28.94a58.065 58.065 0 0 0 58.249-57.88h-14.562v-28.94h-29.124v-14.467h-58.2a116.015 116.015 0 0 0 .9-14.476h28.169v-86.82h14.628a29.032 29.032 0 0 1 29.066 28.943h29.124a57.973 57.973 0 0 0 -43.687-56.059 58.705 58.705 0 0 0 -14.561-1.822h-43.689v100.863c-7.355-56.9-56.281-100.866-115.546-100.866-64.342 0-116.5 51.828-116.5 115.761s52.158 115.763 116.5 115.763zm0-203.749c49.282 0 89.231 39.7 89.231 88.666s-39.949 88.664-89.231 88.664-89.231-39.7-89.231-88.664 39.949-88.666 89.229-88.666z" transform="translate(-98.444 -163.116)"/><path d="m479.28 247.279v-11.227h4.777v-3.239h-13.726v3.239h4.778v11.227z" transform="translate(229.026 -102.576)"/><path d="m494.782 247.279v-14.466h-5.582l-2.508 9.642h-.04l-2.509-9.642h-5.593v14.466h3.569v-10.979h.04l3.06 10.984h2.9l3.059-10.984h.041v10.984z" transform="translate(236.264 -102.576)"/></svg>